<svg width="24" height="24" viewBox="0 0 24 24" fill="none" xmlns="http://www.w3.org/2000/svg">
<path d="M11.7747 9.6625C14.4178 9.34786 15.4135 13.2014 12.9198 14.1785C9.51115 15.5141 8.23349 10.084 11.7747 9.6625Z" fill="black"/>
<path d="M15.2427 14.3585C16.7025 14.1182 17.4832 15.9234 16.2838 16.8283C15.8907 17.1249 15.4604 17.0702 15.3383 17.724C15.2475 18.2104 15.773 18.6008 15.8571 19.1051C16.1659 20.955 13.4366 21.3613 13.1497 19.5664C12.9165 18.1074 14.4376 18.1954 14.6359 17.5282C14.8422 16.8344 14.2758 16.6026 14.1702 16.0974C13.997 15.2683 14.3669 14.5027 15.2427 14.3585Z" fill="black"/>
<path d="M15.0376 3.7399C17.1514 3.30072 17.4294 6.33929 15.3976 6.44807C14.9335 6.47286 14.4816 6.07082 14.0743 6.24106C13.2726 6.57613 13.7767 7.89757 12.5979 8.24109C10.8431 8.75248 10.0452 6.4265 11.526 5.7406C12.4223 5.32545 13.0478 5.9934 13.6372 5.70707C14.1555 5.45541 13.8724 3.98196 15.0376 3.7399Z" fill="black"/>
<path d="M10.5408 3.74771C10.8414 4.10719 10.9483 4.76089 10.7845 5.20368C10.4901 5.99912 9.45798 5.92777 9.35262 6.63353C9.24651 7.34441 9.76511 7.50876 9.85166 8.06109C10.1895 10.2182 7.02265 10.1915 7.10967 8.26648C7.16211 7.1052 8.47577 7.09978 8.61181 6.50129C8.78471 5.741 8.21139 5.49932 8.13149 4.88059C7.94748 3.45521 9.71875 2.76475 10.5408 3.74771Z" fill="black"/>
<path d="M5.94316 7.52946C6.33295 7.87118 6.44343 8.46787 6.37902 8.96558C6.32734 9.36524 6.0564 9.54973 6.25999 10.0196C6.49549 10.5633 7.42602 10.445 7.87005 10.8601C9.28611 12.1837 7.1566 14.2157 5.92511 12.805C5.22933 12.0079 5.73625 11.6391 5.77938 10.9105C5.85576 9.62317 3.88394 10.4173 3.65072 8.74233C3.48513 7.55312 5.0666 6.76101 5.94316 7.52946Z" fill="black"/>
<path d="M16.1209 13.1759C14.8521 11.944 16.6232 9.96446 17.9598 11.0819C18.9836 11.9377 17.9786 12.9995 18.281 13.6199C18.5092 14.0879 19.7185 13.9264 20.1458 14.715C21.0716 16.4233 18.6829 17.5656 17.8392 16.2049C17.2535 15.2601 18.0277 14.5925 17.7693 14.029C17.5389 13.5265 16.5063 13.55 16.1209 13.1759Z" fill="black"/>
<path d="M17.2409 8.48242C17.9435 9.12338 18.537 8.18573 19.2296 8.12712C21.1823 7.9621 21.2388 11.0983 19.0964 10.8651C18.098 10.7564 18.1094 9.47222 17.3365 9.35119C16.8016 9.2675 16.7269 9.56257 16.3305 9.72796C14.0845 10.6653 13.5885 7.3598 15.5256 7.18652C16.8299 7.06986 16.6602 7.95279 17.2409 8.48242Z" fill="black"/>
<path d="M7.64712 20.0161C6.73541 19.1276 7.31614 17.6327 8.5862 17.5955C9.05607 17.5817 9.55149 17.9933 10.0638 17.7536C10.5831 17.502 10.3242 16.09 11.387 15.8106C13.6184 15.224 13.9183 18.5104 11.7462 18.4658C11.291 18.4564 10.9583 18.0943 10.499 18.2891C9.88865 18.5479 10.0398 19.4013 9.63927 19.882C9.16978 20.4455 8.17561 20.5312 7.64712 20.0161Z" fill="black"/>
<path d="M4.59972 13.1625C6.01721 13.1362 5.83671 14.5654 6.6673 14.7265C7.12843 14.816 7.63012 14.1953 8.18511 14.1363C10.0643 13.9366 10.27 17.0003 8.17808 16.8898C7.07067 16.8313 7.0967 15.5233 6.41545 15.3746C5.74494 15.2282 5.55019 15.7706 5.00318 15.8579C2.83947 16.203 2.82237 13.1955 4.59972 13.1625Z" fill="black"/>
<path d="M12.4894 2.50894C13.5598 2.36805 13.6875 4.20345 12.4679 4.12118C11.6718 4.06741 11.4383 2.64735 12.4894 2.50894Z" fill="black"/>
<path d="M18.4071 5.46925C19.5254 5.23907 19.7543 7.09346 18.4828 7.07484C17.6791 7.06306 17.4743 5.66125 18.4071 5.46925Z" fill="black"/>
<path d="M3.19926 10.6763C4.2283 10.5442 4.45392 12.2373 3.25597 12.2578C2.30265 12.274 2.21496 10.8026 3.19926 10.6763Z" fill="black"/>
<path d="M5.34239 17.0083C6.05784 16.9053 6.53151 17.7842 6.03789 18.3233C5.07421 19.3756 3.88034 17.2188 5.34239 17.0083Z" fill="black"/>
<path d="M6.2497 4.66512C7.06071 4.62246 7.32804 5.8833 6.56491 6.19063C5.38596 6.66544 4.96777 4.73257 6.2497 4.66512Z" fill="black"/>
<path d="M20.5511 11.7987C21.6429 11.5727 21.9145 13.3214 20.7158 13.3843C19.8274 13.4309 19.6411 11.987 20.5511 11.7987Z" fill="black"/>
<path d="M18.4038 19.1024C18.0397 19.5544 17.0556 19.4316 16.9994 18.6707C16.8808 17.0655 19.2966 17.9942 18.4038 19.1024Z" fill="black"/>
<path d="M10.9093 21.3469C10.2611 20.8252 10.9065 19.6255 11.7964 20.0017C12.8176 20.4334 11.8788 22.1273 10.9093 21.3469Z" fill="black"/>
</svg>
