<svg width="24" height="24" viewBox="0 0 24 24" fill="none" xmlns="http://www.w3.org/2000/svg">
<path d="M17.8529 9.38039C17.9276 9.38039 18.0033 9.3876 18.0794 9.40255C18.7114 9.52696 19.1229 10.1402 18.9985 10.7723C18.8891 11.3283 18.4014 11.7137 17.8554 11.7137C17.7807 11.7137 17.705 11.7065 17.6289 11.6915C16.9969 11.5671 16.5854 10.9538 16.7097 10.3218C16.8191 9.76581 17.3069 9.38045 17.8529 9.38039ZM17.8529 8.06836C16.6727 8.06842 15.6505 8.90961 15.4224 10.0684C15.1585 11.4093 16.0347 12.7149 17.3755 12.9788C17.5335 13.01 17.695 13.0257 17.8554 13.0257C19.0355 13.0257 20.0577 12.1846 20.2858 11.0257C20.5497 9.68479 19.6735 8.3792 18.3328 8.11524C18.1747 8.08413 18.0133 8.06836 17.8529 8.06836Z" fill="black"/>
<path d="M12.3887 7.21003C12.7496 7.4543 13.0644 7.76685 13.3171 8.13734L15.1818 6.27271L15.824 7.70166C16.1796 7.4475 16.5828 7.25971 17.0154 7.15238L15.5986 4L12.3887 7.21003Z" fill="black"/>
<path d="M21.7999 17.7988L19.8358 13.4285C19.4763 13.6763 19.0688 13.855 18.6342 13.9549L19.7721 16.4868H17.1122C17.1938 16.9148 17.195 17.3583 17.1108 17.7988H21.7999Z" fill="black"/>
<path d="M4.96715 16.4867L8.45544 12.9985C8.09562 12.7529 7.7814 12.4399 7.53011 12.0684L1.7998 17.7988H10.2379C10.1562 17.3708 10.155 16.9273 10.2392 16.4867H4.96715Z" fill="black"/>
<path d="M10.4266 8.94192C10.5013 8.94192 10.577 8.94912 10.6531 8.96408C11.2851 9.08849 11.6966 9.70173 11.5723 10.3338C11.4629 10.8898 10.9751 11.2752 10.4291 11.2752C10.3544 11.2752 10.2787 11.268 10.2026 11.253C9.57059 11.1286 9.15908 10.5154 9.28346 9.88332C9.39285 9.32731 9.88058 8.94198 10.4266 8.94192ZM10.4266 7.62988C9.2464 7.62994 8.22421 8.4711 7.99615 9.62995C7.73222 10.9708 8.6084 12.2764 9.94921 12.5404C10.1072 12.5715 10.2687 12.5872 10.4291 12.5872C11.6094 12.5872 12.6315 11.7461 12.8596 10.5872C13.1235 9.24631 12.2473 7.94072 10.9065 7.67677C10.7485 7.64566 10.587 7.62988 10.4266 7.62988Z" fill="black"/>
<path d="M17.2281 11.7419L16.3996 10.7248L14.4604 12.3044L11.8702 10.3638L11.0835 11.4139L13.7414 13.4053L13.2063 15.709L14.4842 16.0057L15.0656 13.5035L17.2281 11.7419Z" fill="black"/>
<path d="M13.6741 15.9761C13.7488 15.9761 13.8246 15.9833 13.9006 15.9983C14.5327 16.1227 14.9442 16.7359 14.8198 17.368C14.7104 17.924 14.2227 18.3094 13.6767 18.3094C13.602 18.3094 13.5263 18.3022 13.4502 18.2872C12.8182 18.1628 12.4066 17.5495 12.5311 16.9175C12.6405 16.3615 13.1282 15.9762 13.6741 15.9761ZM13.6742 14.6641C12.494 14.6641 11.4718 15.5053 11.2437 16.6641C11.1158 17.3136 11.2486 17.9741 11.6175 18.5238C11.9864 19.0735 12.5472 19.4467 13.1968 19.5745C13.3548 19.6057 13.5163 19.6214 13.6767 19.6214C14.8569 19.6214 15.879 18.7803 16.1071 17.6214C16.235 16.9719 16.1022 16.3114 15.7333 15.7617C15.3645 15.212 14.8036 14.8388 14.154 14.7109C13.996 14.6798 13.8346 14.6641 13.6742 14.6641Z" fill="black"/>
</svg>
